<svg width="25" height="25" viewBox="0 0 25 25" fill="none" xmlns="http://www.w3.org/2000/svg">
<g clip-path="url(#clip0_11:72)">
<path d="M24.0234 9.42359C24.5628 9.42359 25 8.98638 25 8.44703V4.78492C25 4.36343 24.7296 3.98951 24.3293 3.85748L12.7814 0.0488833C12.5824 -0.0167417 12.3675 -0.0166441 12.1686 0.0493227L0.669531 3.85792C0.269824 3.99029 0 4.36387 0 4.78492V8.44703C0 8.98638 0.437207 9.42359 0.976562 9.42359H1.70898V19.1404H0.976562C0.437207 19.1404 0 19.5776 0 20.1169V24.0232C0 24.5626 0.437207 24.9998 0.976562 24.9998H16.5527C17.8484 24.9482 17.8475 23.0978 16.5527 23.0466H1.95312V21.0935H14.4043C14.9437 21.0935 15.3809 20.6563 15.3809 20.1169V9.42359H20.3613V11.2767C16.4941 12.5032 17.2614 18.1135 21.3624 18.2127C23.4668 18.2993 23.4676 21.2994 21.3623 21.3865C20.7383 21.3865 20.1696 21.0185 19.9137 20.449C19.6925 19.9571 19.1145 19.7375 18.6226 19.9586C18.1307 20.1797 17.9111 20.7578 18.1322 21.2497C18.5618 22.2053 19.3863 22.9064 20.3613 23.1947V24.0232C20.4129 25.3189 22.2633 25.3179 22.3145 24.0232V23.2095C26.2267 22.0269 25.4918 16.3621 21.3623 16.2595C19.2579 16.1729 19.2569 13.1728 21.3623 13.0857C22.0007 13.0857 22.5745 13.4655 22.8241 14.0532C23.0348 14.5497 23.6082 14.7812 24.1046 14.5706C24.601 14.3598 24.8327 13.7864 24.6219 13.29C24.1934 12.2808 23.3362 11.5465 22.3145 11.2622V9.42359H24.0234ZM1.95312 5.49019L12.4762 2.00484L23.0469 5.49117V7.47046H1.95312V5.49019ZM9.52148 9.42359V19.1404H7.56836V9.42359H9.52148ZM3.66211 9.42359H5.61523V19.1404H3.66211V9.42359ZM13.4277 19.1404H11.4746V9.42359H13.4277V19.1404ZM13.4277 5.07789C13.4277 5.61724 12.9905 6.05445 12.4512 6.05445C11.1558 6.00303 11.1562 4.15254 12.4512 4.10132C12.9905 4.10132 13.4277 4.53853 13.4277 5.07789Z" fill="white"/>
</g>
<defs>
<clipPath id="clip0_11:72">
<rect width="25" height="25" fill="white"/>
</clipPath>
</defs>
</svg>
