<svg width="25" height="25" viewBox="0 0 25 25" fill="none" xmlns="http://www.w3.org/2000/svg">
<g clip-path="url(#clip0_11:70)">
<path d="M22.168 18.3594H19.3848C18.8463 18.3594 18.4082 18.7975 18.4082 19.3359V22.0703C18.4082 22.6097 17.971 23.0469 17.4316 23.0469C16.8923 23.0469 16.4551 22.6097 16.4551 22.0703V19.3359C16.4551 17.7205 17.7693 16.4062 19.3848 16.4062H22.168C22.7073 16.4062 23.1445 16.8435 23.1445 17.3828C23.1445 17.9222 22.7073 18.3594 22.168 18.3594ZM21.4913 20.1102C21.1099 19.7288 20.4916 19.7288 20.1103 20.1102C19.7289 20.4916 19.7289 21.11 20.1103 21.4913L23.3329 24.714C23.5236 24.9047 23.7735 25 24.0234 25C24.2734 25 24.5233 24.9047 24.714 24.714C25.0954 24.3326 25.0954 23.7143 24.714 23.3329L21.4913 20.1102ZM16.6719 15.6739C17.1796 15.6739 17.6083 15.281 17.645 14.7666C17.6752 14.342 17.6959 13.9105 17.7089 13.4766H20.1172C20.6565 13.4766 21.0938 13.0394 21.0938 12.5C21.0938 11.9606 20.6565 11.5234 20.1172 11.5234H17.7027C17.608 9.36113 17.199 7.14697 16.4592 4.78613C16.2979 4.27153 15.7501 3.98496 15.2354 4.14629C14.7207 4.30757 14.4342 4.85547 14.5955 5.37017C15.2739 7.5354 15.6525 9.5584 15.747 11.5235H9.25552C9.38848 9.05386 9.99277 6.86436 10.461 5.37017C10.6223 4.85547 10.3358 4.30752 9.82109 4.14629C9.30649 3.98481 8.7585 4.27144 8.59722 4.78613C8.0895 6.4064 7.43262 8.79453 7.2998 11.5234H4.88281C4.34346 11.5234 3.90625 11.9606 3.90625 12.5C3.90625 13.0394 4.34346 13.4766 4.88281 13.4766H7.29966C7.43164 16.2058 8.08452 18.593 8.58911 20.2124C8.71943 20.6306 9.10503 20.8987 9.52119 20.8987C9.61743 20.8987 9.71528 20.8844 9.81201 20.8542C10.327 20.6938 10.6143 20.1463 10.4539 19.6313C9.98833 18.1374 9.38745 15.9479 9.25532 13.4766H15.7552C15.7428 13.864 15.7238 14.249 15.6968 14.6279C15.6585 15.1659 16.0636 15.6331 16.6015 15.6713C16.6251 15.673 16.6486 15.6739 16.6719 15.6739ZM13.8419 22.9624C13.3999 23.0185 12.9483 23.0469 12.5 23.0469C6.68442 23.0469 1.95312 18.3156 1.95312 12.5C1.95312 6.68442 6.68442 1.95312 12.5 1.95312C18.3156 1.95312 23.0469 6.68442 23.0469 12.5C23.0469 12.9314 23.0201 13.3685 22.9672 13.7991C22.9016 14.3344 23.2823 14.8216 23.8176 14.8873C24.3529 14.9531 24.8401 14.5723 24.9058 14.037C24.9683 13.5277 25 13.0106 25 12.5C25 9.16108 23.6998 6.02202 21.3389 3.66108C18.9779 1.30024 15.8389 0 12.5 0C9.16113 0 6.02212 1.30024 3.66113 3.66113C1.30024 6.02207 0 9.16113 0 12.5C0 15.8389 1.30024 18.9779 3.66113 21.3389C6.02212 23.6998 9.16113 25 12.5 25C13.0302 25 13.5644 24.9664 14.0877 24.9C14.6228 24.8321 15.0015 24.3434 14.9336 23.8083C14.8658 23.2732 14.3769 22.8945 13.8419 22.9624Z" fill="white"/>
</g>
<defs>
<clipPath id="clip0_11:70">
<rect width="25" height="25" fill="white"/>
</clipPath>
</defs>
</svg>
