<svg width="25" height="25" viewBox="0 0 25 25" fill="none" xmlns="http://www.w3.org/2000/svg">
<g clip-path="url(#clip0_11:68)">
<path d="M11.5279 6.56594C12.9807 7.1232 14.8917 7.43007 16.909 7.43007C18.9262 7.43007 20.8372 7.1232 22.29 6.56594C24.6479 5.6615 25 4.39823 25 3.72574C25 3.05326 24.6479 1.78994 22.29 0.885544C20.8372 0.328237 18.9262 0.0213623 16.909 0.0213623C14.8917 0.0213623 12.9807 0.328237 11.5279 0.885495C9.16998 1.78994 8.81792 3.05321 8.81792 3.72569C8.81792 4.39818 9.16998 5.6615 11.5279 6.56594ZM12.2261 2.70578C13.4437 2.23884 15.1505 1.97101 16.909 1.97101C18.6674 1.97101 20.3743 2.23884 21.5918 2.70578C22.6938 3.12852 23.0504 3.57547 23.0504 3.72569C23.0504 3.87591 22.6939 4.32287 21.5918 4.7456C20.3743 5.21254 18.6674 5.48038 16.909 5.48038C15.1505 5.48038 13.4436 5.21254 12.2261 4.7456C11.1241 4.32287 10.7676 3.87591 10.7676 3.72569C10.7676 3.57547 11.1241 3.12852 12.2261 2.70578ZM24.8708 22.2886C25.0903 22.7802 24.8697 23.3567 24.3781 23.5762C22.3478 24.4826 19.6929 24.9769 16.8723 24.9769C16.7682 24.9769 16.6639 24.9762 16.5594 24.9749C16.0211 24.9679 15.5903 24.5259 15.5973 23.9876C15.6043 23.4492 16.0477 23.0186 16.5846 23.0254C19.2069 23.0589 21.7573 22.6112 23.5833 21.7959C24.0748 21.5763 24.6513 21.797 24.8708 22.2886ZM24.8708 17.9507C25.0903 18.4423 24.8697 19.0187 24.3781 19.2382C22.8995 19.8984 21.0559 20.3475 19.0466 20.5371C19.0155 20.54 18.9845 20.5415 18.9539 20.5415C18.4568 20.5415 18.0322 20.163 17.9845 19.6582C17.9339 19.1222 18.3275 18.6466 18.8635 18.5961C20.664 18.4262 22.2961 18.0326 23.5833 17.4579C24.0748 17.2383 24.6513 17.459 24.8708 17.9507ZM24.8708 13.564C25.0903 14.0556 24.8697 14.632 24.3781 14.8515C22.9799 15.4758 21.244 15.914 19.358 16.1188C19.3223 16.1227 19.2867 16.1246 19.2516 16.1246C18.7603 16.1246 18.3379 15.7544 18.2836 15.2549C18.2255 14.7197 18.6123 14.2386 19.1475 14.1805C20.8342 13.9973 22.3681 13.6137 23.5832 13.0712C24.0748 12.8516 24.6513 13.0723 24.8708 13.564ZM24.3781 10.4161C22.5955 11.2119 20.252 11.703 17.7791 11.799C17.7663 11.7995 17.7534 11.7998 17.7406 11.7998C17.2197 11.7998 16.7876 11.3879 16.7672 10.8627C16.7463 10.3248 17.1655 9.87172 17.7035 9.85081C19.934 9.76429 22.0222 9.33274 23.5832 8.63574C24.0748 8.41616 24.6513 8.63686 24.8708 9.12846C25.0903 9.62011 24.8697 10.1966 24.3781 10.4161ZM8.28601 8.40485C3.7171 8.40485 0 12.122 0 16.6909C0 21.2598 3.7171 24.9769 8.28601 24.9769C12.8549 24.9769 16.572 21.2598 16.572 16.6909C16.572 12.122 12.8549 8.40485 8.28601 8.40485ZM8.28601 23.0272C4.79214 23.0272 1.94965 20.1848 1.94965 16.6909C1.94965 13.1969 4.79214 10.3545 8.28601 10.3545C11.7799 10.3545 14.6224 13.1969 14.6224 16.6909C14.6224 20.1848 11.7799 23.0272 8.28601 23.0272ZM11.0155 18.1531C11.0155 19.2001 10.3451 20.0948 9.40705 20.4391V20.5902C9.40705 21.1285 8.97062 21.565 8.43223 21.565C7.89383 21.565 7.4574 21.1285 7.4574 20.5902V20.4631C7.06011 20.3825 6.6174 20.2599 6.17127 20.0826C5.67094 19.8837 5.4266 19.3169 5.62542 18.8166C5.82428 18.3163 6.39104 18.072 6.89137 18.2708C7.65451 18.5741 8.35034 18.6405 8.55408 18.6405C8.83147 18.6405 9.06586 18.4173 9.06586 18.1531C9.06586 17.8889 8.75338 17.6657 8.38349 17.6657C6.79964 17.6657 5.60524 16.618 5.60524 15.2286C5.60524 14.0864 6.39524 13.1257 7.4574 12.863V12.7916C7.4574 12.2532 7.89383 11.8167 8.43223 11.8167C8.97062 11.8167 9.40705 12.2532 9.40705 12.7916V12.9709C9.65753 13.037 9.93541 13.1263 10.2478 13.2478C10.7495 13.4429 10.9982 14.0078 10.803 14.5096C10.6079 15.0114 10.0429 15.26 9.54114 15.0648C8.80973 14.7804 8.38856 14.7412 8.0423 14.7412C7.77354 14.7412 7.55489 14.9599 7.55489 15.2286C7.55489 15.5065 7.91114 15.716 8.38349 15.716C9.06869 15.716 9.71588 15.9553 10.206 16.3896C10.7204 16.8457 11.0155 17.4884 11.0155 18.1531Z" fill="white"/>
</g>
<defs>
<clipPath id="clip0_11:68">
<rect width="25" height="25" fill="white"/>
</clipPath>
</defs>
</svg>
