<svg width="14" height="13" viewBox="0 0 14 13" fill="none" xmlns="http://www.w3.org/2000/svg">
<path d="M13.08 1.81941C13.0549 1.65179 12.925 1.51392 12.7495 1.4686L7.12263 0.015549C7.04241 -0.00518301 6.95768 -0.00518301 6.8774 0.015549L1.25056 1.4686C1.07499 1.51392 0.945119 1.65174 0.919986 1.81941C0.88735 2.03732 0.142818 7.18611 2.05249 9.74748C3.95991 12.3058 6.77376 12.9614 6.89259 12.9881C6.92791 12.996 6.9639 12.9999 7.00001 12.9999C7.03613 12.9999 7.07212 12.9959 7.10744 12.9881C7.22633 12.9614 10.0402 12.3058 11.9475 9.74748C13.8572 7.18617 13.1127 2.03737 13.08 1.81941ZM10.6286 4.82532L6.79053 8.38925C6.70122 8.47218 6.5841 8.5137 6.46704 8.5137C6.34997 8.5137 6.23285 8.47223 6.14354 8.38925L3.7705 6.18571C3.68467 6.10606 3.63647 5.99798 3.63647 5.88532C3.63647 5.77265 3.68473 5.66457 3.7705 5.58493L4.24168 5.14741C4.42035 4.98155 4.71005 4.98149 4.88867 5.14741L6.46704 6.61303L9.51044 3.78697C9.5962 3.70727 9.7126 3.66252 9.83393 3.66252C9.95526 3.66252 10.0717 3.70727 10.1574 3.78697L10.6286 4.22449C10.8073 4.3904 10.8073 4.65941 10.6286 4.82532Z" fill="#FE6C9D"/>
</svg>
